<mxfile host="app.diagrams.net" modified="2021-07-02T15:37:16.556Z" agent="5.0 (Windows NT 10.0; Win64; x64) AppleWebKit/537.36 (KHTML, like Gecko) Chrome/91.0.4472.114 Safari/537.36 Edg/91.0.864.59" etag="AvfjSzq1uBxEGLYKwUp5" version="14.8.3" type="github">
  <diagram id="MFfuGnGE7eKgoKoQk3Xu" name="Page-1">
    <mxGraphModel dx="2170" dy="1205" grid="1" gridSize="10" guides="1" tooltips="1" connect="1" arrows="1" fold="1" page="1" pageScale="1" pageWidth="1169" pageHeight="827" math="0" shadow="0">
      <root>
        <mxCell id="0" />
        <mxCell id="1" parent="0" />
        <mxCell id="R3Tt-nIXnRW_d_NXv3qJ-1" value="order" style="whiteSpace=wrap;html=1;align=center;fontSize=12;" parent="1" vertex="1">
          <mxGeometry x="165" y="190" width="100" height="40" as="geometry" />
        </mxCell>
        <mxCell id="R3Tt-nIXnRW_d_NXv3qJ-3" value="id" style="ellipse;whiteSpace=wrap;html=1;align=center;fontSize=12;" parent="1" vertex="1">
          <mxGeometry x="75" y="100" width="100" height="40" as="geometry" />
        </mxCell>
        <mxCell id="R3Tt-nIXnRW_d_NXv3qJ-4" value="user_id" style="ellipse;whiteSpace=wrap;html=1;align=center;fontSize=12;" parent="1" vertex="1">
          <mxGeometry x="175" y="90" width="100" height="40" as="geometry" />
        </mxCell>
        <mxCell id="R3Tt-nIXnRW_d_NXv3qJ-5" value="user_name" style="ellipse;whiteSpace=wrap;html=1;align=center;fontSize=12;" parent="1" vertex="1">
          <mxGeometry x="285" y="100" width="100" height="40" as="geometry" />
        </mxCell>
        <mxCell id="R3Tt-nIXnRW_d_NXv3qJ-6" value="total" style="ellipse;whiteSpace=wrap;html=1;align=center;fontSize=12;" parent="1" vertex="1">
          <mxGeometry x="355" y="185" width="100" height="40" as="geometry" />
        </mxCell>
        <mxCell id="R3Tt-nIXnRW_d_NXv3qJ-7" value="created_by" style="ellipse;whiteSpace=wrap;html=1;align=center;fontSize=12;" parent="1" vertex="1">
          <mxGeometry x="15" y="190" width="100" height="40" as="geometry" />
        </mxCell>
        <mxCell id="R3Tt-nIXnRW_d_NXv3qJ-8" value="order_no" style="ellipse;whiteSpace=wrap;html=1;align=center;fontSize=12;" parent="1" vertex="1">
          <mxGeometry x="345" y="140" width="100" height="40" as="geometry" />
        </mxCell>
        <mxCell id="R3Tt-nIXnRW_d_NXv3qJ-9" value="order_date" style="ellipse;whiteSpace=wrap;html=1;align=center;fontSize=12;" parent="1" vertex="1">
          <mxGeometry x="15" y="140" width="100" height="40" as="geometry" />
        </mxCell>
        <mxCell id="R3Tt-nIXnRW_d_NXv3qJ-10" value="created_at" style="ellipse;whiteSpace=wrap;html=1;align=center;fontSize=12;" parent="1" vertex="1">
          <mxGeometry x="335" y="236" width="100" height="40" as="geometry" />
        </mxCell>
        <mxCell id="R3Tt-nIXnRW_d_NXv3qJ-11" value="status" style="ellipse;whiteSpace=wrap;html=1;align=center;fontSize=12;" parent="1" vertex="1">
          <mxGeometry x="15" y="240" width="100" height="40" as="geometry" />
        </mxCell>
        <mxCell id="R3Tt-nIXnRW_d_NXv3qJ-14" value="" style="endArrow=none;html=1;rounded=0;strokeWidth=1;exitX=1;exitY=0.5;exitDx=0;exitDy=0;entryX=0;entryY=1;entryDx=0;entryDy=0;fontSize=12;" parent="1" source="R3Tt-nIXnRW_d_NXv3qJ-11" target="R3Tt-nIXnRW_d_NXv3qJ-1" edge="1">
          <mxGeometry relative="1" as="geometry">
            <mxPoint x="335" y="330" as="sourcePoint" />
            <mxPoint x="495" y="330" as="targetPoint" />
          </mxGeometry>
        </mxCell>
        <mxCell id="R3Tt-nIXnRW_d_NXv3qJ-15" value="" style="endArrow=none;html=1;rounded=0;strokeWidth=1;exitX=1;exitY=0.5;exitDx=0;exitDy=0;entryX=0;entryY=0.5;entryDx=0;entryDy=0;fontSize=12;" parent="1" source="R3Tt-nIXnRW_d_NXv3qJ-7" target="R3Tt-nIXnRW_d_NXv3qJ-1" edge="1">
          <mxGeometry relative="1" as="geometry">
            <mxPoint x="335" y="330" as="sourcePoint" />
            <mxPoint x="495" y="330" as="targetPoint" />
          </mxGeometry>
        </mxCell>
        <mxCell id="R3Tt-nIXnRW_d_NXv3qJ-16" value="" style="endArrow=none;html=1;rounded=0;strokeWidth=1;exitX=1;exitY=0.5;exitDx=0;exitDy=0;entryX=0;entryY=0;entryDx=0;entryDy=0;fontSize=12;" parent="1" source="R3Tt-nIXnRW_d_NXv3qJ-9" target="R3Tt-nIXnRW_d_NXv3qJ-1" edge="1">
          <mxGeometry relative="1" as="geometry">
            <mxPoint x="335" y="330" as="sourcePoint" />
            <mxPoint x="495" y="330" as="targetPoint" />
          </mxGeometry>
        </mxCell>
        <mxCell id="R3Tt-nIXnRW_d_NXv3qJ-17" value="" style="endArrow=none;html=1;rounded=0;strokeWidth=1;fontSize=12;" parent="1" source="R3Tt-nIXnRW_d_NXv3qJ-3" target="R3Tt-nIXnRW_d_NXv3qJ-1" edge="1">
          <mxGeometry relative="1" as="geometry">
            <mxPoint x="335" y="330" as="sourcePoint" />
            <mxPoint x="495" y="330" as="targetPoint" />
          </mxGeometry>
        </mxCell>
        <mxCell id="R3Tt-nIXnRW_d_NXv3qJ-18" value="" style="endArrow=none;html=1;rounded=0;strokeWidth=1;exitX=0.5;exitY=1;exitDx=0;exitDy=0;entryX=0.5;entryY=0;entryDx=0;entryDy=0;fontSize=12;" parent="1" source="R3Tt-nIXnRW_d_NXv3qJ-4" target="R3Tt-nIXnRW_d_NXv3qJ-1" edge="1">
          <mxGeometry relative="1" as="geometry">
            <mxPoint x="335" y="330" as="sourcePoint" />
            <mxPoint x="495" y="330" as="targetPoint" />
          </mxGeometry>
        </mxCell>
        <mxCell id="R3Tt-nIXnRW_d_NXv3qJ-19" value="" style="endArrow=none;html=1;rounded=0;strokeWidth=1;exitX=0;exitY=1;exitDx=0;exitDy=0;entryX=0.75;entryY=0;entryDx=0;entryDy=0;fontSize=12;" parent="1" source="R3Tt-nIXnRW_d_NXv3qJ-5" target="R3Tt-nIXnRW_d_NXv3qJ-1" edge="1">
          <mxGeometry relative="1" as="geometry">
            <mxPoint x="335" y="330" as="sourcePoint" />
            <mxPoint x="495" y="330" as="targetPoint" />
          </mxGeometry>
        </mxCell>
        <mxCell id="R3Tt-nIXnRW_d_NXv3qJ-20" value="" style="endArrow=none;html=1;rounded=0;strokeWidth=1;exitX=0;exitY=0.5;exitDx=0;exitDy=0;entryX=1;entryY=0.25;entryDx=0;entryDy=0;fontSize=12;" parent="1" source="R3Tt-nIXnRW_d_NXv3qJ-8" target="R3Tt-nIXnRW_d_NXv3qJ-1" edge="1">
          <mxGeometry relative="1" as="geometry">
            <mxPoint x="335" y="330" as="sourcePoint" />
            <mxPoint x="495" y="330" as="targetPoint" />
          </mxGeometry>
        </mxCell>
        <mxCell id="R3Tt-nIXnRW_d_NXv3qJ-21" value="" style="endArrow=none;html=1;rounded=0;strokeWidth=1;exitX=0;exitY=0.5;exitDx=0;exitDy=0;entryX=1;entryY=0.5;entryDx=0;entryDy=0;fontSize=12;" parent="1" source="R3Tt-nIXnRW_d_NXv3qJ-6" target="R3Tt-nIXnRW_d_NXv3qJ-1" edge="1">
          <mxGeometry relative="1" as="geometry">
            <mxPoint x="335" y="330" as="sourcePoint" />
            <mxPoint x="495" y="330" as="targetPoint" />
          </mxGeometry>
        </mxCell>
        <mxCell id="R3Tt-nIXnRW_d_NXv3qJ-22" value="" style="endArrow=none;html=1;rounded=0;strokeWidth=1;exitX=0;exitY=0.5;exitDx=0;exitDy=0;fontSize=12;entryX=1;entryY=0.75;entryDx=0;entryDy=0;" parent="1" source="R3Tt-nIXnRW_d_NXv3qJ-10" target="R3Tt-nIXnRW_d_NXv3qJ-1" edge="1">
          <mxGeometry relative="1" as="geometry">
            <mxPoint x="335" y="330" as="sourcePoint" />
            <mxPoint x="495" y="330" as="targetPoint" />
          </mxGeometry>
        </mxCell>
        <mxCell id="R3Tt-nIXnRW_d_NXv3qJ-23" value="order_dtl" style="whiteSpace=wrap;html=1;align=center;fontSize=12;" parent="1" vertex="1">
          <mxGeometry x="165" y="583" width="100" height="40" as="geometry" />
        </mxCell>
        <mxCell id="R3Tt-nIXnRW_d_NXv3qJ-31" value="M" style="text;strokeColor=none;fillColor=none;spacingLeft=4;spacingRight=4;overflow=hidden;rotatable=0;points=[[0,0.5],[1,0.5]];portConstraint=eastwest;fontSize=12;align=center;verticalAlign=middle;" parent="1" vertex="1">
          <mxGeometry x="215" y="250" width="30" height="20" as="geometry" />
        </mxCell>
        <mxCell id="R3Tt-nIXnRW_d_NXv3qJ-32" value="has" style="shape=rhombus;perimeter=rhombusPerimeter;whiteSpace=wrap;html=1;align=center;fontSize=12;" parent="1" vertex="1">
          <mxGeometry x="185" y="384" width="60" height="30" as="geometry" />
        </mxCell>
        <mxCell id="R3Tt-nIXnRW_d_NXv3qJ-33" value="" style="endArrow=none;html=1;rounded=0;fontSize=12;strokeWidth=1;exitX=0.5;exitY=1;exitDx=0;exitDy=0;" parent="1" source="R3Tt-nIXnRW_d_NXv3qJ-1" target="R3Tt-nIXnRW_d_NXv3qJ-32" edge="1">
          <mxGeometry relative="1" as="geometry">
            <mxPoint x="205" y="320" as="sourcePoint" />
            <mxPoint x="365" y="320" as="targetPoint" />
          </mxGeometry>
        </mxCell>
        <mxCell id="R3Tt-nIXnRW_d_NXv3qJ-34" value="" style="endArrow=none;html=1;rounded=0;fontSize=12;strokeWidth=1;exitX=0.5;exitY=1;exitDx=0;exitDy=0;entryX=0.5;entryY=0;entryDx=0;entryDy=0;" parent="1" source="R3Tt-nIXnRW_d_NXv3qJ-32" target="R3Tt-nIXnRW_d_NXv3qJ-23" edge="1">
          <mxGeometry relative="1" as="geometry">
            <mxPoint x="205" y="320" as="sourcePoint" />
            <mxPoint x="365" y="320" as="targetPoint" />
          </mxGeometry>
        </mxCell>
        <mxCell id="R3Tt-nIXnRW_d_NXv3qJ-35" value="users" style="whiteSpace=wrap;html=1;align=center;fontSize=12;" parent="1" vertex="1">
          <mxGeometry x="495" y="360" width="100" height="40" as="geometry" />
        </mxCell>
        <mxCell id="R3Tt-nIXnRW_d_NXv3qJ-36" value="M" style="text;strokeColor=none;fillColor=none;spacingLeft=4;spacingRight=4;overflow=hidden;rotatable=0;points=[[0,0.5],[1,0.5]];portConstraint=eastwest;fontSize=12;align=center;verticalAlign=middle;" parent="1" vertex="1">
          <mxGeometry x="455" y="350" width="30" height="20" as="geometry" />
        </mxCell>
        <mxCell id="R3Tt-nIXnRW_d_NXv3qJ-37" value="has" style="shape=rhombus;perimeter=rhombusPerimeter;whiteSpace=wrap;html=1;align=center;fontSize=12;" parent="1" vertex="1">
          <mxGeometry x="330" y="310" width="60" height="30" as="geometry" />
        </mxCell>
        <mxCell id="R3Tt-nIXnRW_d_NXv3qJ-38" value="" style="endArrow=none;html=1;rounded=0;fontSize=12;strokeWidth=1;exitX=0.75;exitY=1;exitDx=0;exitDy=0;entryX=0.5;entryY=0;entryDx=0;entryDy=0;" parent="1" source="R3Tt-nIXnRW_d_NXv3qJ-1" target="R3Tt-nIXnRW_d_NXv3qJ-37" edge="1">
          <mxGeometry relative="1" as="geometry">
            <mxPoint x="325" y="290" as="sourcePoint" />
            <mxPoint x="475" y="380" as="targetPoint" />
          </mxGeometry>
        </mxCell>
        <mxCell id="R3Tt-nIXnRW_d_NXv3qJ-39" value="" style="endArrow=none;html=1;rounded=0;fontSize=12;strokeWidth=1;exitX=0.5;exitY=1;exitDx=0;exitDy=0;entryX=0;entryY=0.5;entryDx=0;entryDy=0;" parent="1" source="R3Tt-nIXnRW_d_NXv3qJ-37" target="R3Tt-nIXnRW_d_NXv3qJ-35" edge="1">
          <mxGeometry relative="1" as="geometry">
            <mxPoint x="315" y="380" as="sourcePoint" />
            <mxPoint x="325" y="470" as="targetPoint" />
          </mxGeometry>
        </mxCell>
        <mxCell id="R3Tt-nIXnRW_d_NXv3qJ-40" value="M" style="text;strokeColor=none;fillColor=none;spacingLeft=4;spacingRight=4;overflow=hidden;rotatable=0;points=[[0,0.5],[1,0.5]];portConstraint=eastwest;fontSize=12;align=center;verticalAlign=middle;" parent="1" vertex="1">
          <mxGeometry x="275" y="246" width="30" height="20" as="geometry" />
        </mxCell>
        <mxCell id="R3Tt-nIXnRW_d_NXv3qJ-42" value="user_roles" style="whiteSpace=wrap;html=1;align=center;fontSize=12;" parent="1" vertex="1">
          <mxGeometry x="625" y="160" width="100" height="40" as="geometry" />
        </mxCell>
        <mxCell id="R3Tt-nIXnRW_d_NXv3qJ-43" value="M" style="text;strokeColor=none;fillColor=none;spacingLeft=4;spacingRight=4;overflow=hidden;rotatable=0;points=[[0,0.5],[1,0.5]];portConstraint=eastwest;fontSize=12;align=center;verticalAlign=middle;" parent="1" vertex="1">
          <mxGeometry x="595" y="205" width="30" height="20" as="geometry" />
        </mxCell>
        <mxCell id="R3Tt-nIXnRW_d_NXv3qJ-44" value="has" style="shape=rhombus;perimeter=rhombusPerimeter;whiteSpace=wrap;html=1;align=center;fontSize=12;" parent="1" vertex="1">
          <mxGeometry x="515" y="250" width="60" height="30" as="geometry" />
        </mxCell>
        <mxCell id="R3Tt-nIXnRW_d_NXv3qJ-45" value="" style="endArrow=none;html=1;rounded=0;fontSize=12;strokeWidth=1;exitX=0.5;exitY=1;exitDx=0;exitDy=0;" parent="1" source="R3Tt-nIXnRW_d_NXv3qJ-42" target="R3Tt-nIXnRW_d_NXv3qJ-44" edge="1">
          <mxGeometry relative="1" as="geometry">
            <mxPoint x="535" y="270" as="sourcePoint" />
            <mxPoint x="695" y="270" as="targetPoint" />
          </mxGeometry>
        </mxCell>
        <mxCell id="R3Tt-nIXnRW_d_NXv3qJ-46" value="" style="endArrow=none;html=1;rounded=0;fontSize=12;strokeWidth=1;exitX=0.5;exitY=1;exitDx=0;exitDy=0;entryX=0.5;entryY=0;entryDx=0;entryDy=0;" parent="1" source="R3Tt-nIXnRW_d_NXv3qJ-44" target="R3Tt-nIXnRW_d_NXv3qJ-35" edge="1">
          <mxGeometry relative="1" as="geometry">
            <mxPoint x="535" y="270" as="sourcePoint" />
            <mxPoint x="545" y="360" as="targetPoint" />
          </mxGeometry>
        </mxCell>
        <mxCell id="R3Tt-nIXnRW_d_NXv3qJ-49" value="1" style="text;strokeColor=none;fillColor=none;spacingLeft=4;spacingRight=4;overflow=hidden;rotatable=0;points=[[0,0.5],[1,0.5]];portConstraint=eastwest;fontSize=12;align=center;verticalAlign=middle;" parent="1" vertex="1">
          <mxGeometry x="546" y="330" width="30" height="20" as="geometry" />
        </mxCell>
        <mxCell id="R3Tt-nIXnRW_d_NXv3qJ-50" value="user_id" style="ellipse;whiteSpace=wrap;html=1;align=center;fontSize=12;" parent="1" vertex="1">
          <mxGeometry x="565" y="90" width="70" height="40" as="geometry" />
        </mxCell>
        <mxCell id="R3Tt-nIXnRW_d_NXv3qJ-51" value="role_id" style="ellipse;whiteSpace=wrap;html=1;align=center;fontSize=12;" parent="1" vertex="1">
          <mxGeometry x="705" y="90" width="70" height="40" as="geometry" />
        </mxCell>
        <mxCell id="R3Tt-nIXnRW_d_NXv3qJ-52" value="" style="endArrow=none;html=1;rounded=0;fontSize=12;strokeWidth=1;entryX=0.5;entryY=1;entryDx=0;entryDy=0;exitX=0.25;exitY=0;exitDx=0;exitDy=0;" parent="1" source="R3Tt-nIXnRW_d_NXv3qJ-42" target="R3Tt-nIXnRW_d_NXv3qJ-50" edge="1">
          <mxGeometry relative="1" as="geometry">
            <mxPoint x="345" y="270" as="sourcePoint" />
            <mxPoint x="505" y="270" as="targetPoint" />
          </mxGeometry>
        </mxCell>
        <mxCell id="R3Tt-nIXnRW_d_NXv3qJ-53" value="" style="endArrow=none;html=1;rounded=0;fontSize=12;strokeWidth=1;entryX=0.5;entryY=1;entryDx=0;entryDy=0;exitX=0.75;exitY=0;exitDx=0;exitDy=0;" parent="1" source="R3Tt-nIXnRW_d_NXv3qJ-42" target="R3Tt-nIXnRW_d_NXv3qJ-51" edge="1">
          <mxGeometry relative="1" as="geometry">
            <mxPoint x="345" y="270" as="sourcePoint" />
            <mxPoint x="505" y="270" as="targetPoint" />
          </mxGeometry>
        </mxCell>
        <mxCell id="R3Tt-nIXnRW_d_NXv3qJ-54" value="roles" style="whiteSpace=wrap;html=1;align=center;fontSize=12;" parent="1" vertex="1">
          <mxGeometry x="965" y="160" width="100" height="40" as="geometry" />
        </mxCell>
        <mxCell id="R3Tt-nIXnRW_d_NXv3qJ-55" value="M" style="text;strokeColor=none;fillColor=none;spacingLeft=4;spacingRight=4;overflow=hidden;rotatable=0;points=[[0,0.5],[1,0.5]];portConstraint=eastwest;fontSize=12;align=center;verticalAlign=middle;" parent="1" vertex="1">
          <mxGeometry x="735" y="160" width="30" height="20" as="geometry" />
        </mxCell>
        <mxCell id="R3Tt-nIXnRW_d_NXv3qJ-56" value="has" style="shape=rhombus;perimeter=rhombusPerimeter;whiteSpace=wrap;html=1;align=center;fontSize=12;" parent="1" vertex="1">
          <mxGeometry x="816" y="165" width="60" height="30" as="geometry" />
        </mxCell>
        <mxCell id="R3Tt-nIXnRW_d_NXv3qJ-57" value="" style="endArrow=none;html=1;rounded=0;fontSize=12;strokeWidth=1;exitX=0;exitY=0.5;exitDx=0;exitDy=0;" parent="1" source="R3Tt-nIXnRW_d_NXv3qJ-54" target="R3Tt-nIXnRW_d_NXv3qJ-56" edge="1">
          <mxGeometry relative="1" as="geometry">
            <mxPoint x="835" y="280" as="sourcePoint" />
            <mxPoint x="995" y="280" as="targetPoint" />
          </mxGeometry>
        </mxCell>
        <mxCell id="R3Tt-nIXnRW_d_NXv3qJ-58" value="1" style="text;strokeColor=none;fillColor=none;spacingLeft=4;spacingRight=4;overflow=hidden;rotatable=0;points=[[0,0.5],[1,0.5]];portConstraint=eastwest;fontSize=12;align=center;verticalAlign=middle;" parent="1" vertex="1">
          <mxGeometry x="935" y="160" width="30" height="20" as="geometry" />
        </mxCell>
        <mxCell id="R3Tt-nIXnRW_d_NXv3qJ-59" value="id" style="ellipse;whiteSpace=wrap;html=1;align=center;fontSize=12;" parent="1" vertex="1">
          <mxGeometry x="935" y="100" width="70" height="40" as="geometry" />
        </mxCell>
        <mxCell id="R3Tt-nIXnRW_d_NXv3qJ-60" value="role_name" style="ellipse;whiteSpace=wrap;html=1;align=center;fontSize=12;" parent="1" vertex="1">
          <mxGeometry x="1025" y="100" width="70" height="40" as="geometry" />
        </mxCell>
        <mxCell id="R3Tt-nIXnRW_d_NXv3qJ-61" value="" style="endArrow=none;html=1;rounded=0;fontSize=12;strokeWidth=1;entryX=0.5;entryY=1;entryDx=0;entryDy=0;exitX=0.25;exitY=0;exitDx=0;exitDy=0;" parent="1" source="R3Tt-nIXnRW_d_NXv3qJ-54" target="R3Tt-nIXnRW_d_NXv3qJ-59" edge="1">
          <mxGeometry relative="1" as="geometry">
            <mxPoint x="645" y="280" as="sourcePoint" />
            <mxPoint x="805" y="280" as="targetPoint" />
          </mxGeometry>
        </mxCell>
        <mxCell id="R3Tt-nIXnRW_d_NXv3qJ-62" value="" style="endArrow=none;html=1;rounded=0;fontSize=12;strokeWidth=1;entryX=0.5;entryY=1;entryDx=0;entryDy=0;exitX=0.75;exitY=0;exitDx=0;exitDy=0;" parent="1" source="R3Tt-nIXnRW_d_NXv3qJ-54" target="R3Tt-nIXnRW_d_NXv3qJ-60" edge="1">
          <mxGeometry relative="1" as="geometry">
            <mxPoint x="645" y="280" as="sourcePoint" />
            <mxPoint x="805" y="280" as="targetPoint" />
          </mxGeometry>
        </mxCell>
        <mxCell id="R3Tt-nIXnRW_d_NXv3qJ-63" value="" style="endArrow=none;html=1;rounded=0;fontSize=12;strokeWidth=1;exitX=0;exitY=0.5;exitDx=0;exitDy=0;entryX=1;entryY=0.5;entryDx=0;entryDy=0;" parent="1" source="R3Tt-nIXnRW_d_NXv3qJ-56" target="R3Tt-nIXnRW_d_NXv3qJ-42" edge="1">
          <mxGeometry relative="1" as="geometry">
            <mxPoint x="555" y="290" as="sourcePoint" />
            <mxPoint x="555" y="390" as="targetPoint" />
          </mxGeometry>
        </mxCell>
        <mxCell id="R3Tt-nIXnRW_d_NXv3qJ-64" value="id" style="ellipse;whiteSpace=wrap;html=1;align=center;fontSize=12;" parent="1" vertex="1">
          <mxGeometry x="115" y="520" width="80" height="40" as="geometry" />
        </mxCell>
        <mxCell id="R3Tt-nIXnRW_d_NXv3qJ-65" value="qty" style="ellipse;whiteSpace=wrap;html=1;align=center;fontSize=12;" parent="1" vertex="1">
          <mxGeometry x="228" y="700" width="80" height="40" as="geometry" />
        </mxCell>
        <mxCell id="R3Tt-nIXnRW_d_NXv3qJ-66" value="so_id" style="ellipse;whiteSpace=wrap;html=1;align=center;fontSize=12;" parent="1" vertex="1">
          <mxGeometry x="35" y="543" width="80" height="40" as="geometry" />
        </mxCell>
        <mxCell id="R3Tt-nIXnRW_d_NXv3qJ-67" value="category_id" style="ellipse;whiteSpace=wrap;html=1;align=center;fontSize=12;" parent="1" vertex="1">
          <mxGeometry x="15" y="591" width="80" height="40" as="geometry" />
        </mxCell>
        <mxCell id="R3Tt-nIXnRW_d_NXv3qJ-68" value="pro_id" style="ellipse;whiteSpace=wrap;html=1;align=center;fontSize=12;" parent="1" vertex="1">
          <mxGeometry x="15" y="637" width="80" height="40" as="geometry" />
        </mxCell>
        <mxCell id="R3Tt-nIXnRW_d_NXv3qJ-69" value="pro_name" style="ellipse;whiteSpace=wrap;html=1;align=center;fontSize=12;" parent="1" vertex="1">
          <mxGeometry x="75" y="677" width="80" height="40" as="geometry" />
        </mxCell>
        <mxCell id="R3Tt-nIXnRW_d_NXv3qJ-70" value="unit" style="ellipse;whiteSpace=wrap;html=1;align=center;fontSize=12;" parent="1" vertex="1">
          <mxGeometry x="145" y="710" width="80" height="40" as="geometry" />
        </mxCell>
        <mxCell id="R3Tt-nIXnRW_d_NXv3qJ-71" value="total" style="ellipse;whiteSpace=wrap;html=1;align=center;fontSize=12;" parent="1" vertex="1">
          <mxGeometry x="305" y="677" width="80" height="40" as="geometry" />
        </mxCell>
        <mxCell id="R3Tt-nIXnRW_d_NXv3qJ-72" value="created_at" style="ellipse;whiteSpace=wrap;html=1;align=center;fontSize=12;" parent="1" vertex="1">
          <mxGeometry x="325" y="633" width="80" height="40" as="geometry" />
        </mxCell>
        <mxCell id="R3Tt-nIXnRW_d_NXv3qJ-73" value="created_by" style="ellipse;whiteSpace=wrap;html=1;align=center;fontSize=12;" parent="1" vertex="1">
          <mxGeometry x="320" y="530" width="80" height="40" as="geometry" />
        </mxCell>
        <mxCell id="R3Tt-nIXnRW_d_NXv3qJ-74" value="unit_price" style="ellipse;whiteSpace=wrap;html=1;align=center;fontSize=12;" parent="1" vertex="1">
          <mxGeometry x="235" y="520" width="80" height="40" as="geometry" />
        </mxCell>
        <mxCell id="R3Tt-nIXnRW_d_NXv3qJ-75" value="" style="endArrow=none;html=1;rounded=0;fontSize=12;strokeWidth=1;exitX=0.5;exitY=1;exitDx=0;exitDy=0;entryX=0.25;entryY=0;entryDx=0;entryDy=0;" parent="1" source="R3Tt-nIXnRW_d_NXv3qJ-64" target="R3Tt-nIXnRW_d_NXv3qJ-23" edge="1">
          <mxGeometry relative="1" as="geometry">
            <mxPoint x="155" y="713" as="sourcePoint" />
            <mxPoint x="315" y="713" as="targetPoint" />
          </mxGeometry>
        </mxCell>
        <mxCell id="R3Tt-nIXnRW_d_NXv3qJ-76" value="" style="endArrow=none;html=1;rounded=0;fontSize=12;strokeWidth=1;exitX=1;exitY=1;exitDx=0;exitDy=0;entryX=0;entryY=0.25;entryDx=0;entryDy=0;" parent="1" source="R3Tt-nIXnRW_d_NXv3qJ-66" target="R3Tt-nIXnRW_d_NXv3qJ-23" edge="1">
          <mxGeometry relative="1" as="geometry">
            <mxPoint x="155" y="713" as="sourcePoint" />
            <mxPoint x="315" y="713" as="targetPoint" />
          </mxGeometry>
        </mxCell>
        <mxCell id="R3Tt-nIXnRW_d_NXv3qJ-77" value="" style="endArrow=none;html=1;rounded=0;fontSize=12;strokeWidth=1;exitX=1;exitY=0.5;exitDx=0;exitDy=0;entryX=0;entryY=0.5;entryDx=0;entryDy=0;" parent="1" source="R3Tt-nIXnRW_d_NXv3qJ-67" target="R3Tt-nIXnRW_d_NXv3qJ-23" edge="1">
          <mxGeometry relative="1" as="geometry">
            <mxPoint x="155" y="713" as="sourcePoint" />
            <mxPoint x="315" y="713" as="targetPoint" />
          </mxGeometry>
        </mxCell>
        <mxCell id="R3Tt-nIXnRW_d_NXv3qJ-78" value="" style="endArrow=none;html=1;rounded=0;fontSize=12;strokeWidth=1;exitX=1;exitY=0.5;exitDx=0;exitDy=0;entryX=0;entryY=1;entryDx=0;entryDy=0;" parent="1" source="R3Tt-nIXnRW_d_NXv3qJ-68" target="R3Tt-nIXnRW_d_NXv3qJ-23" edge="1">
          <mxGeometry relative="1" as="geometry">
            <mxPoint x="155" y="713" as="sourcePoint" />
            <mxPoint x="315" y="713" as="targetPoint" />
          </mxGeometry>
        </mxCell>
        <mxCell id="R3Tt-nIXnRW_d_NXv3qJ-79" value="" style="endArrow=none;html=1;rounded=0;fontSize=12;strokeWidth=1;exitX=0.5;exitY=0;exitDx=0;exitDy=0;entryX=0.25;entryY=1;entryDx=0;entryDy=0;" parent="1" source="R3Tt-nIXnRW_d_NXv3qJ-69" target="R3Tt-nIXnRW_d_NXv3qJ-23" edge="1">
          <mxGeometry relative="1" as="geometry">
            <mxPoint x="155" y="713" as="sourcePoint" />
            <mxPoint x="315" y="713" as="targetPoint" />
          </mxGeometry>
        </mxCell>
        <mxCell id="R3Tt-nIXnRW_d_NXv3qJ-80" value="" style="endArrow=none;html=1;rounded=0;fontSize=12;strokeWidth=1;exitX=0.5;exitY=1;exitDx=0;exitDy=0;entryX=0.5;entryY=0;entryDx=0;entryDy=0;" parent="1" source="R3Tt-nIXnRW_d_NXv3qJ-23" target="R3Tt-nIXnRW_d_NXv3qJ-70" edge="1">
          <mxGeometry relative="1" as="geometry">
            <mxPoint x="155" y="713" as="sourcePoint" />
            <mxPoint x="315" y="713" as="targetPoint" />
          </mxGeometry>
        </mxCell>
        <mxCell id="R3Tt-nIXnRW_d_NXv3qJ-81" value="" style="endArrow=none;html=1;rounded=0;fontSize=12;strokeWidth=1;exitX=0.75;exitY=1;exitDx=0;exitDy=0;entryX=0.5;entryY=0;entryDx=0;entryDy=0;" parent="1" source="R3Tt-nIXnRW_d_NXv3qJ-23" target="R3Tt-nIXnRW_d_NXv3qJ-65" edge="1">
          <mxGeometry relative="1" as="geometry">
            <mxPoint x="155" y="713" as="sourcePoint" />
            <mxPoint x="315" y="713" as="targetPoint" />
          </mxGeometry>
        </mxCell>
        <mxCell id="R3Tt-nIXnRW_d_NXv3qJ-82" value="" style="endArrow=none;html=1;rounded=0;fontSize=12;strokeWidth=1;exitX=1;exitY=1;exitDx=0;exitDy=0;entryX=0;entryY=0;entryDx=0;entryDy=0;" parent="1" source="R3Tt-nIXnRW_d_NXv3qJ-23" target="R3Tt-nIXnRW_d_NXv3qJ-71" edge="1">
          <mxGeometry relative="1" as="geometry">
            <mxPoint x="155" y="713" as="sourcePoint" />
            <mxPoint x="315" y="713" as="targetPoint" />
          </mxGeometry>
        </mxCell>
        <mxCell id="R3Tt-nIXnRW_d_NXv3qJ-83" value="" style="endArrow=none;html=1;rounded=0;fontSize=12;strokeWidth=1;exitX=1;exitY=0.75;exitDx=0;exitDy=0;" parent="1" source="R3Tt-nIXnRW_d_NXv3qJ-23" target="R3Tt-nIXnRW_d_NXv3qJ-72" edge="1">
          <mxGeometry relative="1" as="geometry">
            <mxPoint x="155" y="713" as="sourcePoint" />
            <mxPoint x="315" y="713" as="targetPoint" />
          </mxGeometry>
        </mxCell>
        <mxCell id="R3Tt-nIXnRW_d_NXv3qJ-84" value="" style="endArrow=none;html=1;rounded=0;fontSize=12;strokeWidth=1;exitX=1;exitY=0.25;exitDx=0;exitDy=0;entryX=0;entryY=1;entryDx=0;entryDy=0;" parent="1" source="R3Tt-nIXnRW_d_NXv3qJ-23" target="R3Tt-nIXnRW_d_NXv3qJ-73" edge="1">
          <mxGeometry relative="1" as="geometry">
            <mxPoint x="155" y="713" as="sourcePoint" />
            <mxPoint x="315" y="713" as="targetPoint" />
          </mxGeometry>
        </mxCell>
        <mxCell id="R3Tt-nIXnRW_d_NXv3qJ-85" value="" style="endArrow=none;html=1;rounded=0;fontSize=12;strokeWidth=1;exitX=0.75;exitY=0;exitDx=0;exitDy=0;" parent="1" source="R3Tt-nIXnRW_d_NXv3qJ-23" target="R3Tt-nIXnRW_d_NXv3qJ-74" edge="1">
          <mxGeometry relative="1" as="geometry">
            <mxPoint x="155" y="713" as="sourcePoint" />
            <mxPoint x="315" y="713" as="targetPoint" />
          </mxGeometry>
        </mxCell>
        <mxCell id="R3Tt-nIXnRW_d_NXv3qJ-87" value="products" style="whiteSpace=wrap;html=1;align=center;fontSize=12;" parent="1" vertex="1">
          <mxGeometry x="588" y="584" width="100" height="40" as="geometry" />
        </mxCell>
        <mxCell id="R3Tt-nIXnRW_d_NXv3qJ-89" value="has" style="shape=rhombus;perimeter=rhombusPerimeter;whiteSpace=wrap;html=1;align=center;fontSize=12;" parent="1" vertex="1">
          <mxGeometry x="433" y="589" width="60" height="30" as="geometry" />
        </mxCell>
        <mxCell id="R3Tt-nIXnRW_d_NXv3qJ-90" value="" style="endArrow=none;html=1;rounded=0;fontSize=12;strokeWidth=1;exitX=1;exitY=0.5;exitDx=0;exitDy=0;entryX=0;entryY=0.5;entryDx=0;entryDy=0;" parent="1" source="R3Tt-nIXnRW_d_NXv3qJ-23" target="R3Tt-nIXnRW_d_NXv3qJ-89" edge="1">
          <mxGeometry relative="1" as="geometry">
            <mxPoint x="385" y="630" as="sourcePoint" />
            <mxPoint x="545" y="630" as="targetPoint" />
          </mxGeometry>
        </mxCell>
        <mxCell id="R3Tt-nIXnRW_d_NXv3qJ-91" value="" style="endArrow=none;html=1;rounded=0;fontSize=12;strokeWidth=1;exitX=1;exitY=0.5;exitDx=0;exitDy=0;entryX=0;entryY=0.5;entryDx=0;entryDy=0;" parent="1" source="R3Tt-nIXnRW_d_NXv3qJ-89" target="R3Tt-nIXnRW_d_NXv3qJ-87" edge="1">
          <mxGeometry relative="1" as="geometry">
            <mxPoint x="493" y="603" as="sourcePoint" />
            <mxPoint x="583" y="604" as="targetPoint" />
          </mxGeometry>
        </mxCell>
        <mxCell id="R3Tt-nIXnRW_d_NXv3qJ-92" value="M" style="text;strokeColor=none;fillColor=none;spacingLeft=4;spacingRight=4;overflow=hidden;rotatable=0;points=[[0,0.5],[1,0.5]];portConstraint=eastwest;fontSize=12;align=center;verticalAlign=middle;" parent="1" vertex="1">
          <mxGeometry x="556" y="584" width="30" height="20" as="geometry" />
        </mxCell>
        <mxCell id="R3Tt-nIXnRW_d_NXv3qJ-94" value="category" style="whiteSpace=wrap;html=1;align=center;fontSize=12;" parent="1" vertex="1">
          <mxGeometry x="1015" y="584" width="100" height="40" as="geometry" />
        </mxCell>
        <mxCell id="R3Tt-nIXnRW_d_NXv3qJ-95" value="" style="endArrow=none;html=1;rounded=0;fontSize=12;strokeWidth=1;exitX=1;exitY=0.5;exitDx=0;exitDy=0;entryX=0;entryY=0.5;entryDx=0;entryDy=0;" parent="1" source="R3Tt-nIXnRW_d_NXv3qJ-87" target="R3Tt-nIXnRW_d_NXv3qJ-97" edge="1">
          <mxGeometry relative="1" as="geometry">
            <mxPoint x="766" y="570" as="sourcePoint" />
            <mxPoint x="866" y="570" as="targetPoint" />
          </mxGeometry>
        </mxCell>
        <mxCell id="R3Tt-nIXnRW_d_NXv3qJ-97" value="has" style="shape=rhombus;perimeter=rhombusPerimeter;whiteSpace=wrap;html=1;align=center;fontSize=12;" parent="1" vertex="1">
          <mxGeometry x="826" y="588" width="60" height="30" as="geometry" />
        </mxCell>
        <mxCell id="R3Tt-nIXnRW_d_NXv3qJ-99" value="" style="endArrow=none;html=1;rounded=0;fontSize=12;strokeWidth=1;entryX=1;entryY=0.5;entryDx=0;entryDy=0;exitX=0;exitY=0.5;exitDx=0;exitDy=0;" parent="1" source="R3Tt-nIXnRW_d_NXv3qJ-94" target="R3Tt-nIXnRW_d_NXv3qJ-97" edge="1">
          <mxGeometry relative="1" as="geometry">
            <mxPoint x="1025" y="480" as="sourcePoint" />
            <mxPoint x="895" y="457" as="targetPoint" />
          </mxGeometry>
        </mxCell>
        <mxCell id="R3Tt-nIXnRW_d_NXv3qJ-100" value="M" style="text;strokeColor=none;fillColor=none;spacingLeft=4;spacingRight=4;overflow=hidden;rotatable=0;points=[[0,0.5],[1,0.5]];portConstraint=eastwest;fontSize=12;align=center;verticalAlign=middle;" parent="1" vertex="1">
          <mxGeometry x="696" y="583" width="30" height="20" as="geometry" />
        </mxCell>
        <mxCell id="R3Tt-nIXnRW_d_NXv3qJ-101" value="description" style="ellipse;whiteSpace=wrap;html=1;align=center;fontSize=12;" parent="1" vertex="1">
          <mxGeometry x="706" y="520" width="80" height="40" as="geometry" />
        </mxCell>
        <mxCell id="R3Tt-nIXnRW_d_NXv3qJ-102" value="pro_image" style="ellipse;whiteSpace=wrap;html=1;align=center;fontSize=12;" parent="1" vertex="1">
          <mxGeometry x="606" y="700" width="80" height="40" as="geometry" />
        </mxCell>
        <mxCell id="R3Tt-nIXnRW_d_NXv3qJ-103" value="created_at" style="ellipse;whiteSpace=wrap;html=1;align=center;fontSize=12;" parent="1" vertex="1">
          <mxGeometry x="531" y="673" width="80" height="40" as="geometry" />
        </mxCell>
        <mxCell id="R3Tt-nIXnRW_d_NXv3qJ-104" value="unit_price" style="ellipse;whiteSpace=wrap;html=1;align=center;fontSize=12;" parent="1" vertex="1">
          <mxGeometry x="686" y="677" width="80" height="40" as="geometry" />
        </mxCell>
        <mxCell id="R3Tt-nIXnRW_d_NXv3qJ-105" value="unit" style="ellipse;whiteSpace=wrap;html=1;align=center;fontSize=12;" parent="1" vertex="1">
          <mxGeometry x="717" y="631" width="80" height="40" as="geometry" />
        </mxCell>
        <mxCell id="R3Tt-nIXnRW_d_NXv3qJ-106" value="created_by" style="ellipse;whiteSpace=wrap;html=1;align=center;fontSize=12;" parent="1" vertex="1">
          <mxGeometry x="493" y="631" width="80" height="40" as="geometry" />
        </mxCell>
        <mxCell id="R3Tt-nIXnRW_d_NXv3qJ-107" value="name" style="ellipse;whiteSpace=wrap;html=1;align=center;fontSize=12;" parent="1" vertex="1">
          <mxGeometry x="646" y="480" width="80" height="40" as="geometry" />
        </mxCell>
        <mxCell id="R3Tt-nIXnRW_d_NXv3qJ-108" value="category_id" style="ellipse;whiteSpace=wrap;html=1;align=center;fontSize=12;" parent="1" vertex="1">
          <mxGeometry x="561" y="480" width="80" height="40" as="geometry" />
        </mxCell>
        <mxCell id="R3Tt-nIXnRW_d_NXv3qJ-109" value="id" style="ellipse;whiteSpace=wrap;html=1;align=center;fontSize=12;" parent="1" vertex="1">
          <mxGeometry x="502" y="530" width="80" height="40" as="geometry" />
        </mxCell>
        <mxCell id="R3Tt-nIXnRW_d_NXv3qJ-110" value="" style="endArrow=none;html=1;rounded=0;fontSize=12;strokeWidth=1;exitX=0.716;exitY=0.049;exitDx=0;exitDy=0;entryX=0;entryY=0.75;entryDx=0;entryDy=0;exitPerimeter=0;" parent="1" source="R3Tt-nIXnRW_d_NXv3qJ-106" target="R3Tt-nIXnRW_d_NXv3qJ-87" edge="1">
          <mxGeometry relative="1" as="geometry">
            <mxPoint x="486" y="640" as="sourcePoint" />
            <mxPoint x="646" y="640" as="targetPoint" />
          </mxGeometry>
        </mxCell>
        <mxCell id="R3Tt-nIXnRW_d_NXv3qJ-111" value="" style="endArrow=none;html=1;rounded=0;fontSize=12;strokeWidth=1;exitX=0.5;exitY=0;exitDx=0;exitDy=0;entryX=0.25;entryY=1;entryDx=0;entryDy=0;" parent="1" source="R3Tt-nIXnRW_d_NXv3qJ-103" target="R3Tt-nIXnRW_d_NXv3qJ-87" edge="1">
          <mxGeometry relative="1" as="geometry">
            <mxPoint x="556" y="640" as="sourcePoint" />
            <mxPoint x="716" y="640" as="targetPoint" />
          </mxGeometry>
        </mxCell>
        <mxCell id="R3Tt-nIXnRW_d_NXv3qJ-112" value="" style="endArrow=none;html=1;rounded=0;fontSize=12;strokeWidth=1;exitX=0.5;exitY=0;exitDx=0;exitDy=0;entryX=0.5;entryY=1;entryDx=0;entryDy=0;" parent="1" source="R3Tt-nIXnRW_d_NXv3qJ-102" target="R3Tt-nIXnRW_d_NXv3qJ-87" edge="1">
          <mxGeometry relative="1" as="geometry">
            <mxPoint x="556" y="640" as="sourcePoint" />
            <mxPoint x="716" y="640" as="targetPoint" />
          </mxGeometry>
        </mxCell>
        <mxCell id="R3Tt-nIXnRW_d_NXv3qJ-113" value="" style="endArrow=none;html=1;rounded=0;fontSize=12;strokeWidth=1;exitX=0;exitY=0;exitDx=0;exitDy=0;entryX=0.75;entryY=1;entryDx=0;entryDy=0;" parent="1" source="R3Tt-nIXnRW_d_NXv3qJ-104" target="R3Tt-nIXnRW_d_NXv3qJ-87" edge="1">
          <mxGeometry relative="1" as="geometry">
            <mxPoint x="556" y="640" as="sourcePoint" />
            <mxPoint x="716" y="640" as="targetPoint" />
          </mxGeometry>
        </mxCell>
        <mxCell id="R3Tt-nIXnRW_d_NXv3qJ-114" value="" style="endArrow=none;html=1;rounded=0;fontSize=12;strokeWidth=1;exitX=1;exitY=0.75;exitDx=0;exitDy=0;entryX=0;entryY=0;entryDx=0;entryDy=0;" parent="1" source="R3Tt-nIXnRW_d_NXv3qJ-87" target="R3Tt-nIXnRW_d_NXv3qJ-105" edge="1">
          <mxGeometry relative="1" as="geometry">
            <mxPoint x="556" y="640" as="sourcePoint" />
            <mxPoint x="716" y="640" as="targetPoint" />
          </mxGeometry>
        </mxCell>
        <mxCell id="R3Tt-nIXnRW_d_NXv3qJ-115" value="" style="endArrow=none;html=1;rounded=0;fontSize=12;strokeWidth=1;exitX=0.5;exitY=1;exitDx=0;exitDy=0;entryX=0;entryY=0.25;entryDx=0;entryDy=0;" parent="1" source="R3Tt-nIXnRW_d_NXv3qJ-109" target="R3Tt-nIXnRW_d_NXv3qJ-87" edge="1">
          <mxGeometry relative="1" as="geometry">
            <mxPoint x="556" y="640" as="sourcePoint" />
            <mxPoint x="716" y="640" as="targetPoint" />
          </mxGeometry>
        </mxCell>
        <mxCell id="R3Tt-nIXnRW_d_NXv3qJ-116" value="" style="endArrow=none;html=1;rounded=0;fontSize=12;strokeWidth=1;exitX=0.5;exitY=1;exitDx=0;exitDy=0;entryX=0.25;entryY=0;entryDx=0;entryDy=0;" parent="1" source="R3Tt-nIXnRW_d_NXv3qJ-108" target="R3Tt-nIXnRW_d_NXv3qJ-87" edge="1">
          <mxGeometry relative="1" as="geometry">
            <mxPoint x="556" y="640" as="sourcePoint" />
            <mxPoint x="716" y="640" as="targetPoint" />
          </mxGeometry>
        </mxCell>
        <mxCell id="R3Tt-nIXnRW_d_NXv3qJ-117" value="" style="endArrow=none;html=1;rounded=0;fontSize=12;strokeWidth=1;entryX=0.75;entryY=0;entryDx=0;entryDy=0;" parent="1" source="R3Tt-nIXnRW_d_NXv3qJ-107" target="R3Tt-nIXnRW_d_NXv3qJ-87" edge="1">
          <mxGeometry relative="1" as="geometry">
            <mxPoint x="556" y="640" as="sourcePoint" />
            <mxPoint x="716" y="640" as="targetPoint" />
          </mxGeometry>
        </mxCell>
        <mxCell id="R3Tt-nIXnRW_d_NXv3qJ-118" value="" style="endArrow=none;html=1;rounded=0;fontSize=12;strokeWidth=1;exitX=0.5;exitY=1;exitDx=0;exitDy=0;entryX=1;entryY=0;entryDx=0;entryDy=0;" parent="1" source="R3Tt-nIXnRW_d_NXv3qJ-101" target="R3Tt-nIXnRW_d_NXv3qJ-87" edge="1">
          <mxGeometry relative="1" as="geometry">
            <mxPoint x="556" y="640" as="sourcePoint" />
            <mxPoint x="716" y="640" as="targetPoint" />
          </mxGeometry>
        </mxCell>
        <mxCell id="R3Tt-nIXnRW_d_NXv3qJ-119" value="id" style="ellipse;whiteSpace=wrap;html=1;align=center;fontSize=12;" parent="1" vertex="1">
          <mxGeometry x="1025" y="677" width="80" height="40" as="geometry" />
        </mxCell>
        <mxCell id="R3Tt-nIXnRW_d_NXv3qJ-120" value="name" style="ellipse;whiteSpace=wrap;html=1;align=center;fontSize=12;" parent="1" vertex="1">
          <mxGeometry x="975" y="640" width="80" height="40" as="geometry" />
        </mxCell>
        <mxCell id="R3Tt-nIXnRW_d_NXv3qJ-121" value="created_at" style="ellipse;whiteSpace=wrap;html=1;align=center;fontSize=12;" parent="1" vertex="1">
          <mxGeometry x="1075" y="640" width="80" height="40" as="geometry" />
        </mxCell>
        <mxCell id="R3Tt-nIXnRW_d_NXv3qJ-122" value="" style="endArrow=none;html=1;rounded=0;fontSize=12;strokeWidth=1;entryX=0.5;entryY=0;entryDx=0;entryDy=0;exitX=0.5;exitY=1;exitDx=0;exitDy=0;" parent="1" source="R3Tt-nIXnRW_d_NXv3qJ-94" target="R3Tt-nIXnRW_d_NXv3qJ-119" edge="1">
          <mxGeometry relative="1" as="geometry">
            <mxPoint x="1055" y="620" as="sourcePoint" />
            <mxPoint x="1025" y="484" as="targetPoint" />
          </mxGeometry>
        </mxCell>
        <mxCell id="R3Tt-nIXnRW_d_NXv3qJ-123" value="" style="endArrow=none;html=1;rounded=0;fontSize=12;strokeWidth=1;exitX=0.5;exitY=0;exitDx=0;exitDy=0;entryX=0.25;entryY=1;entryDx=0;entryDy=0;" parent="1" source="R3Tt-nIXnRW_d_NXv3qJ-120" target="R3Tt-nIXnRW_d_NXv3qJ-94" edge="1">
          <mxGeometry relative="1" as="geometry">
            <mxPoint x="865" y="484" as="sourcePoint" />
            <mxPoint x="1015" y="480" as="targetPoint" />
          </mxGeometry>
        </mxCell>
        <mxCell id="R3Tt-nIXnRW_d_NXv3qJ-124" value="" style="endArrow=none;html=1;rounded=0;fontSize=12;strokeWidth=1;exitX=0.5;exitY=0;exitDx=0;exitDy=0;entryX=0.75;entryY=1;entryDx=0;entryDy=0;" parent="1" source="R3Tt-nIXnRW_d_NXv3qJ-121" target="R3Tt-nIXnRW_d_NXv3qJ-94" edge="1">
          <mxGeometry relative="1" as="geometry">
            <mxPoint x="865" y="484" as="sourcePoint" />
            <mxPoint x="1025" y="484" as="targetPoint" />
          </mxGeometry>
        </mxCell>
        <mxCell id="R3Tt-nIXnRW_d_NXv3qJ-125" value="has" style="shape=rhombus;perimeter=rhombusPerimeter;whiteSpace=wrap;html=1;align=center;fontSize=12;" parent="1" vertex="1">
          <mxGeometry x="1035" y="365" width="60" height="30" as="geometry" />
        </mxCell>
        <mxCell id="R3Tt-nIXnRW_d_NXv3qJ-126" value="" style="endArrow=none;html=1;rounded=0;fontSize=12;strokeWidth=1;exitX=1;exitY=0.5;exitDx=0;exitDy=0;entryX=0;entryY=0.5;entryDx=0;entryDy=0;" parent="1" source="R3Tt-nIXnRW_d_NXv3qJ-35" target="R3Tt-nIXnRW_d_NXv3qJ-125" edge="1">
          <mxGeometry relative="1" as="geometry">
            <mxPoint x="645" y="450" as="sourcePoint" />
            <mxPoint x="805" y="450" as="targetPoint" />
          </mxGeometry>
        </mxCell>
        <mxCell id="R3Tt-nIXnRW_d_NXv3qJ-127" value="" style="endArrow=none;html=1;rounded=0;fontSize=12;strokeWidth=1;exitX=0.5;exitY=1;exitDx=0;exitDy=0;entryX=0.5;entryY=0;entryDx=0;entryDy=0;" parent="1" source="R3Tt-nIXnRW_d_NXv3qJ-125" target="R3Tt-nIXnRW_d_NXv3qJ-94" edge="1">
          <mxGeometry relative="1" as="geometry">
            <mxPoint x="645" y="450" as="sourcePoint" />
            <mxPoint x="805" y="450" as="targetPoint" />
          </mxGeometry>
        </mxCell>
        <mxCell id="-YsVsnImsNgv7rPEbODC-1" value="M" style="text;strokeColor=none;fillColor=none;spacingLeft=4;spacingRight=4;overflow=hidden;rotatable=0;points=[[0,0.5],[1,0.5]];portConstraint=eastwest;fontSize=12;align=center;verticalAlign=middle;" vertex="1" parent="1">
          <mxGeometry x="1065" y="560" width="30" height="20" as="geometry" />
        </mxCell>
        <mxCell id="-YsVsnImsNgv7rPEbODC-2" value="1" style="text;strokeColor=none;fillColor=none;spacingLeft=4;spacingRight=4;overflow=hidden;rotatable=0;points=[[0,0.5],[1,0.5]];portConstraint=eastwest;fontSize=12;align=center;verticalAlign=middle;" vertex="1" parent="1">
          <mxGeometry x="611" y="360" width="30" height="20" as="geometry" />
        </mxCell>
        <mxCell id="-YsVsnImsNgv7rPEbODC-3" value="1" style="text;strokeColor=none;fillColor=none;spacingLeft=4;spacingRight=4;overflow=hidden;rotatable=0;points=[[0,0.5],[1,0.5]];portConstraint=eastwest;fontSize=12;align=center;verticalAlign=middle;" vertex="1" parent="1">
          <mxGeometry x="985" y="583" width="30" height="20" as="geometry" />
        </mxCell>
        <mxCell id="-YsVsnImsNgv7rPEbODC-4" value="M" style="text;strokeColor=none;fillColor=none;spacingLeft=4;spacingRight=4;overflow=hidden;rotatable=0;points=[[0,0.5],[1,0.5]];portConstraint=eastwest;fontSize=12;align=center;verticalAlign=middle;" vertex="1" parent="1">
          <mxGeometry x="210" y="553" width="30" height="20" as="geometry" />
        </mxCell>
        <mxCell id="-YsVsnImsNgv7rPEbODC-5" value="M" style="text;strokeColor=none;fillColor=none;spacingLeft=4;spacingRight=4;overflow=hidden;rotatable=0;points=[[0,0.5],[1,0.5]];portConstraint=eastwest;fontSize=12;align=center;verticalAlign=middle;" vertex="1" parent="1">
          <mxGeometry x="300" y="580" width="30" height="20" as="geometry" />
        </mxCell>
      </root>
    </mxGraphModel>
  </diagram>
</mxfile>
